<svg xmlns="http://www.w3.org/2000/svg"
  xmlns:xlink="http://www.w3.org/1999/xlink" viewBox="0 0 1030 730">
  <defs>
    <style>
      .term {fill: #000000; } .a, .b { fill: #00b0ff; } .a, .c, .m { opacity: 0.1; } .a, .aa, .ae, .c, .f { isolation: isolate; } .d { fill: #ffd037; } .e { fill: #a8a8a8; } .f { opacity: 0.2; } .g { opacity: 0.5; } .h { fill: none; stroke: #535461; stroke-miterlimit: 10; stroke-width: 2px; } .i { fill: #e6e6f0; } .j { fill: #fdc2cc; } .k { fill: #565171; } .l { fill: #b45181; } .n { fill: #f569bc; } .o { fill: #f7df1e; } .p { fill: url(#a); } .q { fill: #4f4d59; } .r { fill: #c48c96; } .s { fill: #714b4f; } .t { fill: #ba7855; } .u { fill: #503f43; } .v { fill: #e44d26; } .w { fill: #f16529; } .x { fill: #ebebeb; } .ae, .y { fill: #fff; } .z { fill: url(#b); } .aa, .ah { opacity: 0.05; } .ab { fill: #264de4; } .ac { fill: #2965f1; } .ad { fill: #47465a; } .ae { opacity: 0.3; } .af { fill: #e1a0a7; } .ag { fill: #8f5a6a; }
    </style>
    <linearGradient id="a" x1="889.176" y1="1049.84" x2="889.176" y2="711.243" gradientTransform="translate(-84.99 -432.93)" gradientUnits="userSpaceOnUse">
      <stop offset="0" stop-color="gray" stop-opacity="0.25"/>
      <stop offset="0.54" stop-color="gray" stop-opacity="0.12"/>
      <stop offset="1" stop-color="gray" stop-opacity="0.1"/>
    </linearGradient>
    <linearGradient id="b" x1="376.309" y1="1125.054" x2="376.309" y2="729.589" xlink:href="#a"/>
  </defs>
  <title>Splsh Screen</title>
  <g data-depth="0.2">
    <ellipse class="a" cx="814.6" cy="585.4" rx="211.4" ry="41.1"/>
    <path class="b" d="M982.3,574.2a11.383,11.383,0,0,0,3.8-5.8c.5-2.3-.5-5.1-2.7-5.9-2.5-.9-5.1.8-7.1,2.5s-4.3,3.7-6.9,3.3a10.345,10.345,0,0,0,3.2-9.8,4.025,4.025,0,0,0-.9-2c-1.4-1.5-3.8-.8-5.5.3-5.2,3.7-6.6,10.7-6.7,17.1-.5-2.3-.1-4.7-.1-7s-.7-5-2.6-6.2a7.924,7.924,0,0,0-4-1c-2.3-.1-4.9.2-6.5,1.9-2,2.1-1.5,5.7.3,8,1.7,2.3,4.3,3.8,6.8,5.4a15.072,15.072,0,0,1,4.8,4.6c.1.3.3.5.4.8h14.6A35.731,35.731,0,0,0,982.3,574.2Z"/>
  </g>
  <g data-depth="0.4">
    <path class="a" d="M146.7,480.4c31.8,40.5,19.5,99.6-.8,147-6.8,15.9-14.4,32.6-11.6,49.6,3.5,20.8,22,36,41.5,44,35.5,14.7,78,11.2,110.6-9.1,28.2-17.5,48.4-46.1,77-62.8,48-28,109.1-17.4,161.2,1.9,36.9,13.7,77.2,31.4,113.8,17.1,25.8-10,43.6-34.5,53.3-60.4,4.7-12.5,8.1-26,17-36,5.3-5.9,12.3-10.1,19.4-13.6,65-32.2,147-15,210.1-50.7,42.6-24.1,69.9-69.7,82-117.1s10.7-97.2,7.6-146.1c-2.2-34.7-6.1-71.8-28.3-98.6-23.5-28.4-63.8-38.9-100.2-33.5S830,136.7,801,159.3c-36.3,28.3-69.9,63.5-114.5,75-30.3,7.8-62.3,3.5-93.6,2.1-52.3-2.5-104.6,3-156.7,9-49.8,5.8-100,12.1-147.4,28.3-33.6,11.5-60.5,32.3-92.2,46.8-20.7,9.5-43.2,12.1-62.8,24.2-24.1,14.9-46.2,40.8-40,71C99.7,444.5,129.8,458.9,146.7,480.4Z"/>
  </g>
  <g data-depth="0.2">
    <ellipse class="a" cx="552.3" cy="439.3" rx="427.7" ry="41.1"/>
    <path class="b" d="M427.3,480.1a11.383,11.383,0,0,0,3.8-5.8c.5-2.3-.5-5.1-2.7-5.9-2.5-.9-5.1.8-7.1,2.5s-4.3,3.7-6.9,3.3a10.345,10.345,0,0,0,3.2-9.8,4.025,4.025,0,0,0-.9-2c-1.4-1.5-3.8-.8-5.5.3-5.2,3.7-6.6,10.7-6.7,17.1-.5-2.3-.1-4.7-.1-7s-.7-5-2.6-6.2a7.924,7.924,0,0,0-4-1c-2.3-.1-4.9.2-6.5,1.9-2,2.1-1.5,5.7.3,8,1.7,2.3,4.3,3.8,6.8,5.4a15.072,15.072,0,0,1,4.8,4.6c.1.3.3.5.4.8h14.6A35.731,35.731,0,0,0,427.3,480.1Z"/>
  </g>
  <g data-depth="0.2">
    <g>
      <path class="b" d="M67.2,578.7s8.4,11-3.9,27.5S41,636.8,45.1,647.1c0,0,18.5-30.7,33.5-31.2C93.7,615.5,83.8,597.2,67.2,578.7Z"/>
      <path class="c" d="M67.2,578.7a22.11,22.11,0,0,1,1.8,3.4c14.7,17.2,22.5,33.3,8.4,33.8-13.1.4-28.9,23.9-32.7,29.8.1.5.3.9.4,1.4,0,0,18.5-30.7,33.5-31.2C93.7,615.5,83.8,597.2,67.2,578.7Z"/>
      <path class="d" d="M82.8,592.7c0,3.9-.4,7-1,7s-1-3.1-1-7,.5-2,1.1-2C82.4,590.7,82.8,588.8,82.8,592.7Z"/>
      <path class="d" d="M88.2,597.3c-3.4,1.9-6.3,3-6.6,2.5-.2-.5,2.3-2.4,5.7-4.2s2-.5,2.3,0S91.6,595.4,88.2,597.3Z"/>
      <path class="b" d="M23,578.7s-8.4,11,3.9,27.5S49.2,636.7,45.2,647c0,0-18.5-30.7-33.5-31.2C-3.4,615.5,6.4,597.2,23,578.7Z"/>
      <path class="c" d="M23,578.7a15.444,15.444,0,0,0-1.7,3.4c-14.7,17.2-22.5,33.3-8.4,33.8,13.1.4,28.9,23.9,32.7,29.8-.1.5-.3.9-.4,1.4,0,0-18.5-30.7-33.5-31.2C-3.4,615.5,6.4,597.2,23,578.7Z"/>
      <path class="d" d="M7.4,592.7c0,3.9.4,7,1,7s1-3.1,1-7-.5-2-1.1-2S7.4,588.8,7.4,592.7Z"/>
      <path class="d" d="M2.1,597.3c3.4,1.9,6.3,3,6.6,2.5s-2.3-2.4-5.7-4.2-2-.5-2.3,0S-1.3,595.4,2.1,597.3Z"/>
      <path class="e" d="M10.1,645.6s23.4-.7,30.5-5.8c7.1-5,36-11,37.8-3s35.2,40.1,8.8,40.3-61.5-4.1-68.5-8.4C11.6,664.5,10.1,645.6,10.1,645.6Z"/>
      <path class="f" d="M87.6,674.4c-26.4.2-61.5-4.1-68.5-8.4-5.4-3.3-7.5-15-8.2-20.4h-.8s1.5,18.9,8.5,23.2,42.1,8.6,68.5,8.4c7.6-.1,10.3-2.8,10.1-6.8C96.2,672.9,93.3,674.4,87.6,674.4Z"/>
    </g>
    <ellipse class="a" cx="223.6" cy="676.4" rx="211.4" ry="41.1"/>
    <path class="b" d="M454.2,668c2.3-2.2,4.5-4.7,5.2-7.8s-.6-6.9-3.6-8c-3.3-1.3-6.9,1-9.6,3.4s-5.8,5-9.3,4.5a14.185,14.185,0,0,0,4.4-13.3,6.6,6.6,0,0,0-1.2-2.7c-1.8-2-5.2-1.1-7.4.4-7,5-9,14.5-9,23.2-.7-3.1-.1-6.4-.1-9.5s-.9-6.7-3.6-8.4a11.722,11.722,0,0,0-5.5-1.3c-3.2-.1-6.7.2-8.9,2.5-2.7,2.9-2,7.7.3,10.9s5.9,5.2,9.2,7.4a19.581,19.581,0,0,1,6.5,6.3,5.359,5.359,0,0,1,.5,1.1H442A67.277,67.277,0,0,0,454.2,668Z"/>
  </g>
  <g data-depth="0.6">
    <g class="g">
      <path class="b" d="M631.6,103.5c-2.8.8-6.3,2.9-8.1,8.7-3.4,11.3,4.5,19,1.9,30.8a22.611,22.611,0,0,1-4,8.6c-3.1,4.3-6.6,6.3-9.9,9.3a29.873,29.873,0,0,0-8.7,14.3,40.308,40.308,0,0,0-.4,18.6c1.2,5.1,3.2,8.9,4.9,13a94.377,94.377,0,0,1,5.1,16.4,38.55,38.55,0,0,1,1.1,8.3,69.4,69.4,0,0,1-1,11.1L607.7,276a98.323,98.323,0,0,0-1.3,13.2,73.125,73.125,0,0,0,1.5,13.2c1.7,8.8,3.5,18,7.3,22.7s10.4,3,14.4-6.5c3.8-9.1,3.9-21.2,7.3-30.8,5.3-15.3,15.9-17.3,21.8-31.9,5.6-14,3.9-31.1,6.8-47,2-11.4,6.4-21.8,9-33.1,3.7-16.2,3.3-33.1.4-45.6a60.352,60.352,0,0,0-14.2-27.6c-2.5-2.8-5.2-5.2-8.3-5.5-3.3-.3-6.2,3.9-9.5,5.2C639.3,103.9,635.5,102.4,631.6,103.5Z"/>
      <path class="h" d="M649.6,98.1S644,242.5,620.2,327.6"/>
      <path class="h" d="M623.4,112.9s25.3,23.1,20.5,67"/>
      <path class="h" d="M602.1,178.6s41.6,8.4,38.5,33.3"/>
      <path class="h" d="M675.2,130s-16.8,14.7-31.8,56.5"/>
      <path class="h" d="M658.7,256.2s-11.5,9-20.7-22.5"/>
      <path class="h" d="M609.1,274.6s23.4-3.1,25.6-17.7"/>
    </g>
    <g>
      <path class="b" d="M688.2,6.7c-5.8.9-12.8,3.6-15.6,11.8-5.6,16.3,11.5,28.6,7.5,45.6A26.791,26.791,0,0,1,673,76.4c-6,5.9-12.9,8.5-19.4,12.5s-13.2,10.3-16.3,20c-2.9,9.3-1.7,19.6,1.4,27.3,3,7.7,7.7,13.4,11.8,19.7A136.368,136.368,0,0,1,663,180.6a43.943,43.943,0,0,1,3.3,12.3c.5,5.2-.1,10.8-.8,16.3L659.6,258c-.8,6.5-1.6,13.1-1.1,19.3.5,7.2,2.6,13.5,4.7,19.6,4.5,13.2,9.4,27,17.9,34.3s21.9,5.7,29.1-7.8c6.9-12.9,5.6-30.7,11.4-44.5,9.2-21.8,30.9-23.6,41.3-44.3,10-19.9,4.4-45.3,8.4-68.4,2.9-16.6,10.7-31.4,14.7-47.7,5.8-23.5,3-48.3-4.6-67s-19.7-32-32.6-42.2C743.3,4.9,737.5,1,731,.3c-6.9-.8-12.4,5.1-19.1,6.5C704.2,8.2,696.1,5.5,688.2,6.7Z"/>
      <path class="h" d="M724.9.8s5.5,212-33.6,334.5"/>
      <path class="h" d="M672.4,19.5s55.2,37,50.5,101.2"/>
      <path class="h" d="M636.1,113.7s87.1,17.3,83.7,53.6"/>
      <path class="h" d="M781.5,50.8s-33.1,19.7-59.2,79.4"/>
      <path class="h" d="M762.4,234.7s-22.7,12-45.5-35.6"/>
      <path class="h" d="M662,255.9s48.1-1.7,50.9-23.1"/>
    </g>
  </g>
  <g data-depth="0.8">
    <path class="i" d="M439.7,426.5l-3.3,4.9s3.6,4.9,4,5.5c.3.6,10.6-.3,10.6-.3l.9-3.7-1.5-4.3Z"/>
    <polygon class="j" points="327.1 423.7 320.4 425 324.6 433.2 329.2 435.6 333.5 438.7 334.7 435.3 331.6 428.9 327.1 423.7"/>
    <path class="k" d="M436.7,344.6s35.6,8.5,42.3,18c0,0,6.1,5.2,0,14.6S464.4,408,464.4,408s-6.1,20.7-8.5,22.2-16.4,2.7-17.7-3c0,0,7.9-12.5,7.9-18.3s13.1-33.2,13.1-33.2-29.8-3.4-39.3-1.2C410.5,376.6,424.2,341.2,436.7,344.6Z"/>
    <path class="c" d="M436.7,344.6s35.6,8.5,42.3,18c0,0,6.1,5.2,0,14.6S464.4,408,464.4,408s-6.1,20.7-8.5,22.2-16.4,2.7-17.7-3c0,0,7.9-12.5,7.9-18.3s13.1-33.2,13.1-33.2-29.8-3.4-39.3-1.2C410.5,376.6,424.2,341.2,436.7,344.6Z"/>
    <path class="k" d="M429.4,352.8c-.1,1.8-.3,3.8-.5,5.9-1.9,15.5-8.3,38.6-8.3,38.6s-6.4,13.7-8.2,22.5-14.3,11-14.3,11-34.1,4-41.1,2.4-18,4.6-23.4,3.7-8.8-13.7-8.8-13.7a64.866,64.866,0,0,0,27.4-5.8c14-6.4,34.1-3.4,34.1-3.4a11.556,11.556,0,0,0,7-5.8c2.1-4.6,2.1-32.3,1.5-34.1-4-12-3.7-19.7-2.5-24.2a12.391,12.391,0,0,1,2.5-5.3Z"/>
    <path class="c" d="M429.4,352.8c-.1,1.8-.3,3.8-.5,5.9-3.1.2-11.6.5-18-3.5-6-3.7-14.7-4.9-18.7-5.3a12.391,12.391,0,0,1,2.5-5.3Z"/>
    <path class="i" d="M433.6,349c-1.4,4-3.6,8.7-3.6,8.7s-11.3,1.5-19.2-3.4-20.7-5.5-20.7-5.5c2.1-1.3,3.5-5.1,4.3-8.5a37.127,37.127,0,0,0,1.1-5.8s37.4,7.6,39,8.8C435.1,343.8,434.5,346.3,433.6,349Z"/>
    <path class="j" d="M500.3,220.6,454.9,248l-4.5,2.7V237.3l3.1-1.5,38.3-18.3s1.8-33.2,6.7-28S500.3,220.6,500.3,220.6Z"/>
    <path class="c" d="M454.9,248l-4.5,2.7V237.3l3.1-1.5A99.017,99.017,0,0,0,454.9,248Z"/>
    <path class="l" d="M419.9,252.9,452.5,234s.6,18.3,4.3,21c0,0-13.4,4-18.6,12.5Z"/>
    <path class="c" d="M419.9,252.9,452.5,234s.6,18.3,4.3,21c0,0-13.4,4-18.6,12.5Z"/>
    <path class="j" d="M500,269s-15.5,6.8-25.7,9.2a18.962,18.962,0,0,1-7.1.8c-7-1.2,1.8-10,1.8-10l3.7-.6,19.8-3.1s2.1-30.5,5.8-28C501.8,239.9,500,269,500,269Z"/>
    <path class="j" d="M434.5,241.6s-13.1,9.7-8.2,21.9-25.3-7.3-25.3-7.3,9.7-14.6,11.9-25.6C415,219.7,434.5,241.6,434.5,241.6Z"/>
    <path class="c" d="M433.6,349a71.483,71.483,0,0,0-17.6-4.1c-8.8-1-16.9-2.7-21.5-4.6a37.127,37.127,0,0,0,1.1-5.8s37.4,7.6,39,8.8C435.1,343.8,434.5,346.3,433.6,349Z"/>
    <path class="c" d="M474.2,278.3a18.962,18.962,0,0,1-7.1.8c-7-1.2,1.8-10,1.8-10l3.7-.6C474.1,270.9,475.7,274.6,474.2,278.3Z"/>
    <path class="l" d="M413.2,247.1s-11.9-.3-16.1,4.6c-4.3,4.9-3.3,18-3.3,18s-.9,26.3,5.8,41a2.573,2.573,0,0,1,.1,1.5c-.1.2-.1.1-.1.1s-4.3,19.2-8.5,22.5c-4.3,3.4,9.1,7.3,25,9.1s22.2,6.4,22.2,6.4,2.7-3,3-9.7-4.2-55.7-4.2-55.7,16.7,4.3,26.8-.9c0,0,4.6,2.4,8.8-4.3s-3-14-3-14-6.7,6.7-25.3-2.1C425.8,254.7,419,246.8,413.2,247.1Z"/>
    <path class="i" d="M322.2,424.4h-3.6v5.2l3.6,8.2s4.9.9,5.2.9,4.3-.9,4.3-.9l1.2-2.1C332.9,435.6,319.5,430.4,322.2,424.4Z"/>
    <path class="l" d="M436.7,429.2l-5.5,12.2,23.1,11,18.3.6s1.5-4.3-4.6-6.4l-4.9-.9s-6.4-11.6-7-17c0,0-6.1,1.2-7,5.8C449.1,434.4,440.6,438.7,436.7,429.2Z"/>
    <path class="l" d="M319.5,423.1l-1.9,1.5-8.2,6.7,18.9,25s10.6,4.6,15.5,0c0,0,3-3-3.6-5.5,0,0-5.2.9-5.2-4.3s1.2-10.7,3-11.9c0,0-4.6-1.5-5.8-.3a17.216,17.216,0,0,0-2.4,3.4C329.8,437.8,318.9,433.5,319.5,423.1Z"/>
    <path class="c" d="M412.3,231.3a38.961,38.961,0,0,1-1.2,4.6,15.835,15.835,0,0,0,20.3,8.7,28.482,28.482,0,0,1,2.6-2.3C433.9,242.2,414.4,220.3,412.3,231.3Z"/>
    <path class="c" d="M410.6,271.9s9.4,12.5,23.1,12.8"/>
    <g class="m">
      <path d="M467,284.2c-.2-.1-.4-.1-.6-.2a3.552,3.552,0,0,1-.9.4A6.052,6.052,0,0,0,467,284.2Z"/>
      <path d="M470.3,266.9a11.985,11.985,0,0,0-1.1-1.2s-2,2-6.9,2.4A15.69,15.69,0,0,0,470.3,266.9Z"/>
      <path d="M439.7,284.9l.1.7a62.158,62.158,0,0,0,12.2,1A71.434,71.434,0,0,1,439.7,284.9Z"/>
      <path d="M418.7,344c-15.8-1.8-29.2-5.8-25-9.1,4.2-3.4,8.5-22.5,8.5-22.5s0,.1.1-.1a1.962,1.962,0,0,0-.1-1.5c-6.7-14.8-5.8-41-5.8-41s-.9-13.1,3.3-18c3.2-3.6,10.6-4.4,14.1-4.5h-1s-11.9-.3-16.1,4.6c-4.3,4.9-3.3,18-3.3,18s-.9,26.3,5.8,41a2.573,2.573,0,0,1,.1,1.5c-.1.2-.1.1-.1.1s-4.2,19.1-8.5,22.5,9.1,7.3,25,9.1,22.2,6.4,22.2,6.4a8.342,8.342,0,0,0,.8-1.2C435.7,347.6,429.3,345.2,418.7,344Z"/>
    </g>
    <circle class="j" cx="426.3" cy="229.1" r="15.8"/>
    <path class="c" d="M448.8,222.1c-1.3,3.3-5.2,4.5-8.6,5.4-4.9,1.2-10.2,2.4-14.9.5a3.444,3.444,0,0,0-2-.4,2.19,2.19,0,0,0-1.3,1.2c-5.2,7.4-4.3,17.2-5.7,26.1-.4,2.8-1.1,5.6-3,7.7-3.6,4-10.5,3.9-13.9,8.1-2.2,2.8-2.2,6.7-2.2,10.3,0,3.8,0,7.6-.1,11.4-.1,2.5-.2,5.1-1.3,7.3-1.9,3.8-6.2,5.6-10.1,7-2.5.9-5,1.9-7.6,1.6s-5.3-2-5.6-4.6c-.5-3.6,3.2-6.1,5.8-8.7,4.1-4.1,5.7-10.1,5.9-15.9a18.073,18.073,0,0,0-1-6.9c-.9-2.3-2.6-4.2-3.6-6.4-3.1-6.9.7-14.9,5.3-20.9,4.5-6,10.1-11.9,11.1-19.4a26.475,26.475,0,0,1,.7-4.8c.7-2.2,2.4-8.2,4.2-9.6a22.783,22.783,0,0,1,10-4.2c2.8-.4,5.7-.3,8.5-.8,3.3-.6,6.3-2.2,9.5-2.8,7-1.3,14.7,6.9,17.8,13.4C447.4,218.6,449.6,220,448.8,222.1Z"/>
    <path class="n" d="M448.8,221.4c-1.3,3.3-5.2,4.5-8.6,5.4-4.9,1.2-10.2,2.4-14.9.5a3.444,3.444,0,0,0-2-.4,2.19,2.19,0,0,0-1.3,1.2c-5.2,7.4-4.3,17.2-5.7,26.1-.4,2.8-1.1,5.6-3,7.7-3.6,4-10.5,3.9-13.9,8.1-2.2,2.8-2.2,6.7-2.2,10.3,0,3.8,0,7.6-.1,11.4-.1,2.5-.2,5.1-1.3,7.3-1.9,3.8-6.2,5.6-10.1,7-2.5.9-5,1.9-7.6,1.6s-5.3-2-5.6-4.6c-.5-3.6,3.2-6.1,5.8-8.7,4.1-4.1,5.7-10.1,5.9-15.9a18.073,18.073,0,0,0-1-6.9c-.9-2.3-2.6-4.2-3.6-6.4-3.1-6.9.7-14.9,5.3-20.9,4.5-6,10.1-11.9,11.1-19.4a26.475,26.475,0,0,1,.7-4.8c.7-2.2,2.4-8.2,4.2-9.6a22.783,22.783,0,0,1,10-4.2c2.8-.4,5.7-.3,8.5-.8,3.3-.6,6.3-2.2,9.5-2.8,7-1.3,14.7,6.9,17.8,13.4C447.4,218,449.6,219.4,448.8,221.4Z"/>
  </g>
  <g data-depth="1.0">
    <path class="o" d="M500,191H763.2V454.2H500Z"/>
    <path class="term" d="M569.2,411l20.1-12.2c3.9,6.9,7.4,12.7,15.9,12.7,8.1,0,13.2-3.2,13.2-15.5V311.9h24.7v84.5c0,25.6-15,37.3-36.9,37.3-19.7-.1-31.2-10.4-37-22.7m87.4-2.7,20.1-11.7c5.3,8.7,12.2,15,24.4,15,10.2,0,16.8-5.1,16.8-12.2,0-8.5-6.7-11.5-18-16.4l-6.2-2.7C675.9,372.7,664,363.2,664,343c0-18.6,14.1-32.7,36.2-32.7,15.7,0,27,5.5,35.1,19.8l-19.2,12.4c-4.2-7.6-8.8-10.6-15.9-10.6-7.2,0-11.8,4.6-11.8,10.6,0,7.4,4.6,10.4,15.2,15l6.2,2.7c21,9,32.9,18.2,32.9,38.9,0,22.3-17.5,34.5-41,34.5-23,0-37.8-11-45.1-25.3"/>
  </g>
  <g data-depth="0.8">
    <path class="p" d="M878.6,600.3S868.3,601,862,590a33.248,33.248,0,0,0-4.4-6.2,21.955,21.955,0,0,1-3.1-11.2c.3-8.2-8.1-52.8-8.1-52.8s1.1-17-7.4-27.6c-5.6-7-13.6-27-18.5-39.9a2.384,2.384,0,0,0,1.1.6l-.2-1.1h.2L819.1,438a64.489,64.489,0,0,1-9.2-13.9l.6-.1,7.5-1.6s12.2-17.4,13-25.9h2.4a275.041,275.041,0,0,1,33.9,1.8h0l-.2-.6h0a48.16,48.16,0,0,1-1.1-5.2h.7l7-.5s24.1-26.9,15.2-31.9-18.1,22.3-18.1,22.3l-3,.5-.8.2c.1-.1.2-.2.2-.3.1-.1-39.3-1.8-45.4-11.3,0,0-17.4-13.8-18.1-23a10.41,10.41,0,0,0-6.2-8.8,13.539,13.539,0,0,0-6.9-1.3l-8.1.6.6,1h-.2c-.5-1.2-.9-2.4-1.3-3.6h.2c-.1-.3-.1-.5-.2-.8a19.012,19.012,0,0,0,14.2-23c0-.2-.1-.4-.1-.6a6.473,6.473,0,0,0,2.4-.1c3-.6,5.1-3.7,5.2-6.7v-.7a10.462,10.462,0,0,0-3.9-7.9c-1.6-1.4-3.6-2.3-5-3.8-1.7-1.8-2.7-4.2-4.1-6.3a19.234,19.234,0,0,0-9.6-7.5c-2.9-1-6.5-1.1-8.8,1-1.2,1.1-1.8,2.7-3.1,3.6-1.9,1.3-4.4.9-6.7,1.2a12.75,12.75,0,0,0-9.6,7.2,16.77,16.77,0,0,0-1.6,7.6,24.825,24.825,0,0,0,.6,5.4c.4,1.7,1.1,3.4,1.6,5.2,1,3.6,1.2,7.4,2.4,10.9a13.845,13.845,0,0,0,4.4,6.7l-.3,1.5c-.2,0-5.7,1.2-9.5,9.6-3,6.6-13.2,13.4-17.7,16.1a7.054,7.054,0,0,0-3.3,4.6,28.8,28.8,0,0,0-.6,5.9c-.1,4.3.8,10.2,4.2,17.7,7.8,17,13.5,24.4,13.5,24.4s.4,5.2.5,10.7c0,4.1-.3,8.2-1.2,10.2-.7,1.7-1,6.1-.9,11.1,0,9.6.9,22.2.9,22.2s2.7.5,6.9,1.1l2.6,45.9a22.259,22.259,0,0,1-5,15.3,29.9,29.9,0,0,1-6.3,6c-7.4,5.3-23.4,61.3-23.4,61.3a15.317,15.317,0,0,1,2.1.2l-4.9,13.7s19.6,15,31.5,10.9a13.364,13.364,0,0,1,4-.6c2.3,0,7.4-1.9,4.6-4.3a191.467,191.467,0,0,1-15.3-15.9,4.129,4.129,0,0,1,1.1.7V596l.2.1s0-.6.1-1.5l-.2-.1c.4-3.7,1.5-13,3.8-14.1,2.8-1.4,23.7-42.9,23.7-42.9l20.9-53.9s16.6,28.7,30.8,33.7v12s7.8,35.4,10.6,39.3,0,19.5,0,19.5a15.371,15.371,0,0,0,1.9,1.7l-2.3,12.8s16.3-.7,43.9,7.8C876.8,610.6,887.4,606,878.6,600.3ZM813.4,415l-3.4.9-.7.2a3.2,3.2,0,0,1-.1-.7,5.421,5.421,0,0,1-2.5.6,48.715,48.715,0,0,1-2.1-12,74.365,74.365,0,0,1-2.1-14.8c0-2.6.4-4.8,1.4-6.1l1.1.1.8.8h.1l.4.4h0l.4.4.1.1.5.4.1.1.5.4h0l.5.4.1.1.6.5h0l.5.4.1.1.6.5.1.1.6.4.1.1.7.5.2.1.7.5h.1l.7.5.2.1.7.5.2.1.7.4.1.1.8.5.2.1.8.5h.1l.8.4.2.1.8.4.2.1.8.4.2.1.9.4.2.1.9.4h0C816.3,400.5,813.4,415,813.4,415Z"/>
    <path class="q" d="M726,583.2l-6.6,18.3s18,13.8,29.7,10.9a50.675,50.675,0,0,1,5.4-.9c2.4-.2,6.6-2,4-4.2-8.3-7.3-19.4-20.8-19.4-20.8Z"/>
    <path class="q" d="M835.3,581.5l-3.1,17.6s15.9-.7,42.9,7.6c0,0,10.4-4.5,1.7-10,0,0-10,.7-16.2-10s-10-9.3-10-9.3Z"/>
    <path class="r" d="M753,453.5l3,53.7a22.551,22.551,0,0,1-5.3,15.7,31.743,31.743,0,0,1-5.7,5.3c-7.3,5.2-22.8,59.9-22.8,59.9s17.6,1,22.5,4.5c0,0,1-13.8,3.8-15.2s23.2-41.9,23.2-41.9l20.4-52.6s16.2,28,30.1,32.9v11.8s7.6,34.6,10.4,38.4,0,19,0,19,8,10,26.3-.7c0,0-5.9-6.6-5.5-14.5.3-8-8-51.5-8-51.5s1-16.6-7.3-27-22-50.1-22-50.1l-9.5-20.5Z"/>
    <g class="m">
      <path d="M725.5,588.1s15.6-54.7,22.8-59.9a32.262,32.262,0,0,0,6-5.7,22.42,22.42,0,0,0,5-15.3l-3-53.7,51-31.5-.7-1.5-53.4,33,3,53.7a22.259,22.259,0,0,1-5,15.3,40.477,40.477,0,0,1-6,5.7c-7.2,5.2-22.8,59.8-22.8,59.8s17.6,1,22.5,4.5c0,0,0-.5.1-1.4C738.2,588.8,725.5,588.1,725.5,588.1Z"/>
      <path d="M835.8,585s2.8-15.2,0-19-10.4-38.4-10.4-38.4V515.8c-13.8-4.8-30.1-32.9-30.1-32.9l-1.2,3.1c4.7,7.4,17.2,25.9,28.2,29.8v11.8s7.6,34.6,10.4,38.4,0,19,0,19,3.9,4.9,12.4,4.2C838.7,588.6,835.8,585,835.8,585Z"/>
    </g>
    <path class="s" d="M872,393.3l-6.8.5-3.6.2v-8.7l4.7-.9,2.9-.5s9-26.6,17.6-21.8C895.5,367,872,393.3,872,393.3Z"/>
    <path class="s" d="M763,322s-4.5,17.3-5.9,28,32.2,2.1,32.2,2.1-12.8-15.6-5.5-23.9Z"/>
    <path class="i" d="M799.3,394l.7,6.6-10.7-.7-10.7-9.3-10.7-30.1L761,349.8l-5.2-6.6,2.1-8s1,.8,2.5,2.1c5.3,4,17.6,12.4,26.6,10.1a5.638,5.638,0,0,0,1.2-.4l13.5,23.2Z"/>
    <path class="c" d="M760.6,333.1s-5.5,1-9.3,9.3c-2.9,6.4-12.8,13-17.2,15.7a7.016,7.016,0,0,0-3.3,4.7c-.9,3.9-1.2,11.3,3.6,21.9,7.6,16.6,13.1,23.9,13.1,23.9s1.4,16.6-.7,21.4,0,31.5,0,31.5,36.3,6.9,48.4,0,10.4-33.6,10.4-33.6,11.4,24.2,15.6,24.9l-2.4-13.5s-13.5-14.5-14.2-33.2c0,0-4.1-17-.7-21.4,0,0,58.4,4.8,61.9.7,0,0-38.4-1.7-44.3-11.1,0,0-16.9-13.5-17.6-22.5a10.21,10.21,0,0,0-5.2-8.2,14.027,14.027,0,0,0-7.7-1.7l-7.8.5s13.5,23.9,12.8,27,.7,28.4.7,28.4-15.6-33.6-22.5-37.4S759.3,341,759.3,341l1.3-7.9"/>
    <path class="c" d="M799.3,394l.7,6.6-10.7-.7-10.7-9.3-10.7-30.1L761,349.8l-5.2-6.6,2.1-8s1,.8,2.5,2.1l-.5,2.7s8,15.6,14.9,19.4,22.5,37.4,22.5,37.4-1.4-25.3-.7-28.4c.5-2.1-5.6-13.8-9.5-21.1a5.638,5.638,0,0,0,1.2-.4l13.5,23.2Z"/>
    <path class="c" d="M865.2,393.7l-3.6.2v-8.7l4.7-.9C864.7,386.6,864.7,390.5,865.2,393.7Z"/>
    <path class="r" d="M760.6,332s-5.5,1-9.3,9.3c-2.9,6.4-12.8,13-17.2,15.7a7.016,7.016,0,0,0-3.3,4.7c-.9,3.9-1.2,11.3,3.6,21.9,7.6,16.6,13.1,23.9,13.1,23.9s1.4,16.6-.7,21.4,0,31.5,0,31.5,36.3,6.9,48.4,0,10.4-33.6,10.4-33.6S817,451,821.2,451.7l-2.4-13.5s-13.5-14.5-14.2-33.2c0,0-4.1-17-.7-21.4,0,0,13.5,14.5,28.7,14.2a282.869,282.869,0,0,1,33.2,1.7s-3.5-11.1,0-15.2c0,0-38.4-1.7-44.3-11.1,0,0-16.9-13.5-17.6-22.5a10.21,10.21,0,0,0-5.2-8.2,14.027,14.027,0,0,0-7.7-1.7l-7.8.5s13.5,23.9,12.8,27,.7,28.4.7,28.4-15.6-33.6-22.5-37.4-14.9-19.4-14.9-19.4l1.3-7.9"/>
    <path class="c" d="M753,368.4s8.3,28,13.1,31.5,34.2,21.1,42.9,17c0,0,2.1,10.4-1,12.8,0,0-32.2-1.3-32.5-1.4,0,0-21.1-2.8-24.6-13.1-3.5-10.4-7.6-28-7.6-28Z"/>
    <ellipse class="t" cx="797.3" cy="398.3" rx="1.2" ry="1.7"/>
    <ellipse class="t" cx="800.7" cy="410.4" rx="1.2" ry="1.7"/>
    <g class="m">
      <path d="M749.2,460s-2.1-26.6,0-31.5.7-21.4.7-21.4-5.5-7.3-13.1-23.9c-4.8-10.6-4.5-17.9-3.6-21.9a7.9,7.9,0,0,1,3.3-4.7c4.4-2.7,14.3-9.3,17.2-15.7,2.1-4.7,4.8-7.1,6.8-8.2l.1-.8s-5.5,1-9.3,9.3c-2.9,6.4-12.8,13-17.2,15.7a7.016,7.016,0,0,0-3.3,4.7c-.9,3.9-1.2,11.3,3.6,21.9,7.6,16.6,13.1,23.9,13.1,23.9s1.4,16.6-.7,21.4,0,31.5,0,31.5,25.9,4.9,41.3,2.3C772.6,464.5,749.2,460,749.2,460Z"/>
      <path d="M795.9,368.4c-.5,2.1,0,14.7.4,22.3,1.7,3.4,2.7,5.7,2.7,5.7s-1.4-25.3-.7-28.4c.7-3-11.5-24.7-12.7-26.8l-2.5.2S796.6,365.3,795.9,368.4Z"/>
      <path d="M835,397.4c-15.2.4-28.7-14.2-28.7-14.2a6.632,6.632,0,0,0-.9,1.9c4,3.7,15,12.9,27.2,12.7a282.869,282.869,0,0,1,33.2,1.7,3.224,3.224,0,0,1-.2-.6A261.262,261.262,0,0,0,835,397.4Z"/>
      <path d="M808,426.5s.1,2.2.1,5.4c3.6,7.1,10.1,19.4,13.1,19.8l-.5-2.8C815.6,442.6,808,426.5,808,426.5Z"/>
    </g>
    <path class="s" d="M817.7,423l-7.3,1.6-5.8,1.2,3.1-8.7,2.2-.5,3.4-.8s4.8-24.2,14.5-22.5C837.4,395,817.7,423,817.7,423Z"/>
    <path class="c" d="M810.3,424.6l-5.8,1.2,3.1-8.7,2.2-.5A30.515,30.515,0,0,1,810.3,424.6Z"/>
    <path class="r" d="M753,367.7s8.3,28,13.1,31.5,34.2,21.1,42.9,17c0,0,2.1,10.4-1,12.8,0,0-32.2-1.3-32.5-1.4,0,0-21.1-2.8-24.6-13.1-3.5-10.4-7.6-28-7.6-28Z"/>
    <path class="c" d="M763.4,322.7s-.7,2.7-1.6,6.7a18.533,18.533,0,0,0,20.6,9.5c-.8-3.6-.6-7.1,1.8-9.9Z"/>
    <circle class="s" cx="777.9" cy="319.9" r="18.7"/>
    <path class="c" d="M794.1,314.8a9.987,9.987,0,0,0,4.2.3,6.934,6.934,0,0,0,5.1-6.5,10.284,10.284,0,0,0-3.8-7.7c-1.6-1.3-3.5-2.3-4.9-3.7-1.7-1.8-2.6-4.1-4-6.2a17.986,17.986,0,0,0-9.4-7.3c-2.9-1-6.4-1.1-8.6,1-1.1,1.1-1.8,2.6-3,3.5-1.8,1.3-4.3.9-6.5,1.2a12.359,12.359,0,0,0-9.4,7,17.722,17.722,0,0,0-.9,12c.4,1.7,1.1,3.3,1.5,5,1,3.5,1.2,7.2,2.3,10.7s3.4,6.9,6.9,7.9a22.042,22.042,0,0,1,2.2-11.3,3.529,3.529,0,0,1,1.6-1.8,3.083,3.083,0,0,1,1.9,0,19.063,19.063,0,0,0,12.6-2.6c1.3-.8,3.4-3.6,4.8-3.8C788.5,312.2,792.2,314.4,794.1,314.8Z"/>
    <path class="u" d="M794.1,314.1a9.987,9.987,0,0,0,4.2.3,6.934,6.934,0,0,0,5.1-6.5,10.284,10.284,0,0,0-3.8-7.7c-1.6-1.3-3.5-2.3-4.9-3.7-1.7-1.8-2.6-4.1-4-6.2a17.986,17.986,0,0,0-9.4-7.3c-2.9-1-6.4-1.1-8.6,1-1.1,1.1-1.8,2.6-3,3.5-1.8,1.3-4.3.9-6.5,1.2a12.359,12.359,0,0,0-9.4,7,17.722,17.722,0,0,0-.9,12c.4,1.7,1.1,3.3,1.5,5,1,3.5,1.2,7.2,2.3,10.7s3.4,6.9,6.9,7.9a22.042,22.042,0,0,1,2.2-11.3,3.529,3.529,0,0,1,1.6-1.8,3.083,3.083,0,0,1,1.9,0,19.063,19.063,0,0,0,12.6-2.6c1.3-.8,3.4-3.6,4.8-3.8C788.5,311.5,792.2,313.7,794.1,314.1Z"/>
  </g>
  <g data-depth="1.0">
    <path class="v" d="M980.5,252.4,965.3,423.2l-68.5,19-68.3-19L813.3,252.4Z"/>
    <path class="w" d="M896.8,427.7l55.3-15.3,13-145.9H896.8Z"/>
    <path class="x" d="M867.2,308.3h29.6V287.4H844.3l.5,5.6,5.1,57.7h46.9V329.8H869.1Zm4.8,52.9H851l2.9,32.9L896.7,406h.1V384.1h-.1l-23.3-6.3Z"/>
    <path class="term" d="M828.8,206h10.6v10.5h9.7V206h10.6v31.9H849.1V227.2h-9.7v10.7H828.8Zm45,10.6h-9.4V206h29.4v10.6h-9.4v21.3H873.8V216.6ZM898.5,206h11.1l6.8,11.2,6.8-11.2h11.1v31.9H923.7V222.1l-7.3,11.3h-.2l-7.3-11.3v15.8H898.5V206Zm41.1,0h10.6v21.3h15v10.5H939.6V206Z"/>
    <path class="y" d="M896.8,350.7h25.8l-2.4,27.2-23.3,6.3V406l42.9-11.9.3-3.5,4.9-55.2.5-5.6H896.8v20.9Zm0-42.5h0l50.6.1.4-4.7,1-10.6.5-5.6H896.8v20.8Z"/>
  </g>
  <g data-depth="0.8">
    <path class="z" d="M366.7,378.5c-1.9-5.7-4.8-13-7-14.7-.1-.1-.3-.2-.4-.3H359v-7.1l-5.3.8a52.183,52.183,0,0,1-1.9-7.8,3.741,3.741,0,0,0,3.9.8.758.758,0,0,1-.2-.4l.2-.1a10.153,10.153,0,0,1-1.3-4.8,16.913,16.913,0,0,1,.7-4.5c.9-3.3,2.5-6.3,3.4-9.6a25.066,25.066,0,0,0-1.7-17.2,5,5,0,0,0-1.9-2.4,16.269,16.269,0,0,0-2.3-1.1,12.94,12.94,0,0,1-3.3-3.3,29.675,29.675,0,0,0-14.4-9.6,9.065,9.065,0,0,0-4.6-.4c-3.5,1-4.8,5.3-7.7,7.6-2.5,2-6,2.2-9.2,2.9a15.7,15.7,0,0,0-8.5,4.5,9.328,9.328,0,0,0-2.3,6.2,6.182,6.182,0,0,0,2.5,5.5,7.943,7.943,0,0,0,6.7,1,22.775,22.775,0,0,0,15.6,28.2,10.462,10.462,0,0,0,1.7.4l.6,1.1h0a48.962,48.962,0,0,1,4.3,11.2c-4.8,2.8-10.1,5.3-13.3,5.6a24.088,24.088,0,0,1-.7,3.7,20.426,20.426,0,0,1-4.2,8.3c-4.3,4.9-23.9,41.8-23.9,41.8l-1.6,4c-12.1,1.5-31.9,3.6-37.4,2.5l-21.7-20.6s-7,5.4-6.4,11.9l-3.9-3.7s-20.6,15.7,11.9,26l49.5,5.8c-4.7,14.2-9.1,30.8-7.8,39.8h.4a26.352,26.352,0,0,0,2.8-.2l-.1,1.6-4.8,85.5s-1.1,15.7,13.6,22.8c0,0,17.9,52.6,10.8,58.6l2.2,1.1-14.7,13s-10.8,2.7-16.8,2.2a4.387,4.387,0,0,0-4.8,3.2.367.367,0,0,1-.1.3v1a.756.756,0,0,0,.1.4v.1c0,.1.1.3.1.4v.1c0,.1.1.2.2.4v.1c.1.1.1.2.2.4l.1.1c.1.1.2.3.3.4l.1.1c.1.1.2.3.4.4h.1l.4.3.1.1.5.4.1.1.6.3h.1l.6.3h.1l.7.3.1.1.8.3h.1l.8.2h.1l1,.2h.2l1,.2h.2l1.1.1c2.2.2,5.2.2,8.7.2h0v.5a.756.756,0,0,0,.1.4v.1c0,.1.1.2.1.4v.1c0,.1.1.2.2.4v.1c.1.1.1.2.2.4l.1.1c.1.1.2.3.3.4l.1.1c.1.1.2.3.4.4h0l.4.3.1.1.5.4.1.1.6.3h.1l.6.3h.1l.7.3.1.1.8.3h.1l.8.2h.1l1,.2h.2l1,.2h.2l1.1.1c14.1,1.1,59.1-2.2,59.1-2.2v-.1h0v-.2h0c.4-2.1,2.6-14.3-5.1-23.3a5.716,5.716,0,0,0,.7-.8s-6-10.3-2.7-13.6-15.9-59.2-15.9-59.2-10.3-16.3-4.3-34.7c6-18.5-.5-38.5-.5-38.5s14.2-4.2,14.5-21.8v-1.6c.3,0,.6.1.9.1h.6s-2.7-9.8.5-16.8c3.2-7.1,10.3-.5,16.8-29.3,4.7-20.8,8.8-44.8,10.8-56.4A26.14,26.14,0,0,0,366.7,378.5Zm-123.8,61-4.9-4.7c1.6.7,3.5,1.3,5.5,2l18.6,2.2c-8.3.8-16.1,1.2-19.2.5Z"/>
    <path class="j" d="M290.1,436.8s-38.4,5.3-46.4,3.7l-21.3-20.3s-20.3,15.5,11.7,25.6l59.7,6.9Z"/>
    <path class="aa" d="M290.1,436.8s-38.4,5.3-46.4,3.7l-21.3-20.3s-20.3,15.5,11.7,25.6l59.7,6.9Z"/>
  </g>
  <g data-depth="1.0">
    <path class="ab" d="M215,450.2l-82.9-23L113.6,219.8H316.7L298.2,427.1Z"/>
    <path class="ac" d="M282.3,414l15.8-177.2h-83V432.6Z"/>
    <path class="x" d="M156,313.7l2.3,25.4h56.9V313.7Zm-4.6-51.5,2.3,25.4h61.4V262.2Zm63.8,117.5h-.1L186.8,372,185,351.7H159.4l3.6,39.9,52.1,14.5h.1Z"/>
    <path class="term" d="M161.4,163.5h30.8v12.9H174.3v12.9h17.9v12.9H161.4Zm37,0h30.8v11.2h-18v2.2h17.9v25.8H198.3V190.9h17.9v-2.2H198.3l.1-25.2Zm37,0h30.8v11.2h-18v2.2h17.9v25.8H235.3V190.9h17.9v-2.2H235.3V163.5Z"/>
    <path class="y" d="M274.1,313.7l4.6-51.5H215v25.4h35.8l-2.3,26H215V339h31.3l-3,33L215,379.7v26.5l52.1-14.5.4-4.3,6-67,.6-6.7Z"/>
  </g>
  <g data-depth="0.8">
    <path class="ad" d="M304,653.3l-18.7,16.5s-10.7,2.7-16.5,2.1c-5.9-.5-8.5,9.1,5.3,10.1,13.9,1.1,58.1-2.1,58.1-2.1s4.3-17.1-8.5-26.7H304Z"/>
    <path class="aa" d="M304,653.3l-18.7,16.5s-10.7,2.7-16.5,2.1c-5.9-.5-8.5,9.1,5.3,10.1,13.9,1.1,58.1-2.1,58.1-2.1s4.3-17.1-8.5-26.7H304Z"/>
    <path class="ae" d="M332.9,672.6a28.721,28.721,0,0,1-.7,5.8s-44.2,3.2-58.1,2.1c-6.7-.5-9.5-3-10-5.4-.6,2.7,1.8,6.4,10,7,13.9,1.1,58.1-2.1,58.1-2.1A26.91,26.91,0,0,0,332.9,672.6Z"/>
    <path class="j" d="M325.8,351s11.7,16.5,7.5,27.7C329,389.9,355.7,367,355.7,367s-8.5-15-4.3-31Z"/>
    <path class="ad" d="M322.6,659.7,304,676.2s-10.7,2.7-16.5,2.1c-5.9-.5-8.5,9.1,5.3,10.1,13.9,1.1,58.1-2.1,58.1-2.1s4.3-17.1-8.5-26.7Z"/>
    <path class="k" d="M328,655.9a14.33,14.33,0,0,1-10.8,5c-9.3.4-19.6-5-19.6-5,6.9-5.9-10.7-57.6-10.7-57.6-14.4-6.9-13.3-22.4-13.3-22.4l4.7-83.9,1.2-21.1,14.9-9.1,11.8,9,11.2,8.6a46.433,46.433,0,0,1,1.4,8.3c1.3,19.6-14.2,24.2-14.2,24.2s6.4,19.7.5,37.9c-5.9,18.1,4.3,34.1,4.3,34.1s19.2,55.5,16,58.7C322.1,645.8,328,655.9,328,655.9Z"/>
    <path class="aa" d="M328,655.9a14.33,14.33,0,0,1-10.8,5c-9.3.4-19.6-5-19.6-5,6.9-5.9-10.7-57.6-10.7-57.6-14.4-6.9-13.3-22.4-13.3-22.4l4.7-83.9,1.2-21.1,14.9-9.1,11.8,9,11.2,8.6a46.433,46.433,0,0,1,1.4,8.3c1.3,19.6-14.2,24.2-14.2,24.2s6.4,19.7.5,37.9c-5.9,18.1,4.3,34.1,4.3,34.1s19.2,55.5,16,58.7C322.1,645.8,328,655.9,328,655.9Z"/>
    <path class="k" d="M346.6,662.3c-9.1,11.2-30.4,0-30.4,0a3.766,3.766,0,0,0,.9-1.5c3.9-10.6-13.2-61.5-13.2-61.5-14.4-6.9-16-23.5-16-23.5l-3.8-85.5-.5-11.1,22.4-8.6,6.9-2.6,22.9,17.6a38.251,38.251,0,0,1,1.4,11.2c-.3,17.2-14.3,21.4-14.3,21.4s6.4,19.7.5,37.9c-5.9,18.1,4.3,34.1,4.3,34.1s19.2,55.5,16,58.7C340.8,652.2,346.6,662.3,346.6,662.3Z"/>
    <path class="c" d="M337.4,497c-4.6-.7-13.9-6.2-18.7-9.2-1.8-1.2-3-1.9-3-1.9s-4.8-13.3-17.6-3.2a50.458,50.458,0,0,1-13.9,7.9,30.039,30.039,0,0,1-5.9,1.5l1.2-21.1,14.9-9.1,11.8,9,6.9-2.6L336,485.9A38,38,0,0,1,337.4,497Z"/>
    <path class="af" d="M366.3,394.7c-1.9,11.4-6,35-10.6,55.4-6.4,28.3-13.3,21.9-16.5,28.8s-.5,16.5-.5,16.5c-5.3.5-22.9-11.2-22.9-11.2s-4.8-13.3-17.6-3.2-22.9,9.6-22.9,9.6c-2.7-17.6,17.1-64.5,17.1-64.5s19.2-36.3,23.4-41a18.89,18.89,0,0,0,4.1-8.1,22.872,22.872,0,0,0,.7-3.6c6.9-.5,24-12.3,24-12.3l13.3-2.1v6.9a1.38,1.38,0,0,1,.4.3c2.2,1.7,5,8.8,6.9,14.4A29.313,29.313,0,0,1,366.3,394.7Z"/>
    <path class="j" d="M304,444.8l-6.9-.8-52.8-6.1c-32-10.1-11.7-25.6-11.7-25.6l21.3,20.3c6.1,1.2,30.3-1.6,41.1-3,3.2-.4,5.3-.7,5.3-.7Z"/>
    <path class="c" d="M355.7,372.8s-13.9-11.2-34.7,25.1-25.6,30.4-25.6,30.4,4.3,16,2.1,19.2c0,0,14.4-1.1,19.7,0S355.6,407,355.6,407,372.7,383.5,355.7,372.8Z"/>
    <path class="c" d="M355.2,370.7s-13.9-11.2-34.6,25.1c-20.8,36.3-25.6,30.4-25.6,30.4s16.5,18.1,21.8,19.2,38.4-40.5,38.4-40.5S372.2,381.3,355.2,370.7Z"/>
    <path class="c" d="M297.1,444c.2-4-1.3-10.9-2.1-14.5,3.2-.4,5.3-.7,5.3-.7l3.7,16Z"/>
    <path class="af" d="M355.7,371.7s-13.9-11.2-34.7,25.1-25.6,30.4-25.6,30.4,4.3,16,2.1,19.2c0,0,14.4-1.1,19.7,0s38.4-40.5,38.4-40.5S372.7,382.4,355.7,371.7Z"/>
    <path class="c" d="M352,337.1,326.4,352a49.431,49.431,0,0,1,3,4.9,22.973,22.973,0,0,0,4.5.5c6.8,0,10-7.2,14.1-12C347.7,341.5,350.8,341.4,352,337.1Z"/>
    <circle class="j" cx="333.3" cy="333.9" r="22.4"/>
    <path class="c" d="M305,315.7a15.274,15.274,0,0,1,8.4-4.4c3.1-.7,6.5-.9,9-2.9,2.8-2.3,4.1-6.5,7.5-7.5a7.685,7.685,0,0,1,4.5.4,30.107,30.107,0,0,1,14.1,9.4,12.94,12.94,0,0,0,3.3,3.3,15.054,15.054,0,0,1,2.2,1.1,6.094,6.094,0,0,1,1.8,2.4,22.944,22.944,0,0,1,1.6,16.3c-.9,3.2-2.4,6.2-3.4,9.4-.9,3.2-1.2,6.8.5,9.7-1.6.8-3.7-.2-4.7-1.8a23.075,23.075,0,0,1-1.9-5.2,20.053,20.053,0,0,0-5.8-9c-1.7-1.5-4.7-2.5-5.8-.6-.4.7-.4,1.7-.8,2.5a3.3,3.3,0,0,1-4.4,1,6.961,6.961,0,0,1-2.8-4.1c-2.2-7.4-5.9-12.1-13.9-8.9-3,1.2-6.4,2-9.3,0C301.6,324.1,302.3,318.8,305,315.7Z"/>
    <path class="ag" d="M305,315.2a15.274,15.274,0,0,1,8.4-4.4c3.1-.7,6.5-.9,9-2.9,2.8-2.3,4.1-6.5,7.5-7.5a7.685,7.685,0,0,1,4.5.4,30.107,30.107,0,0,1,14.1,9.4,12.94,12.94,0,0,0,3.3,3.3,15.054,15.054,0,0,1,2.2,1.1,6.094,6.094,0,0,1,1.8,2.4,22.944,22.944,0,0,1,1.6,16.3c-.9,3.2-2.4,6.2-3.4,9.4-.9,3.2-1.2,6.8.5,9.7-1.6.8-3.7-.2-4.7-1.8a23.075,23.075,0,0,1-1.9-5.2,20.053,20.053,0,0,0-5.8-9c-1.7-1.5-4.7-2.5-5.8-.6-.4.7-.4,1.7-.8,2.5a3.3,3.3,0,0,1-4.4,1,6.961,6.961,0,0,1-2.8-4.1c-2.2-7.4-5.9-12.1-13.9-8.9-3,1.2-6.4,2-9.3,0C301.6,323.6,302.3,318.3,305,315.2Z"/>
    <path class="aa" d="M358.3,366.1H347.5s-21.3,10.7-21.8,10.1c-.4-.4-3.7.3-5.7.7a22.872,22.872,0,0,0,.7-3.6c6.9-.5,24-12.3,24-12.3l13.3-2.1v6.9Q358,365.95,358.3,366.1Z"/>
    <path class="ae" d="M351.6,679a28.721,28.721,0,0,1-.7,5.8s-44.2,3.2-58.1,2.1c-6.7-.5-9.5-3-10-5.4-.6,2.7,1.8,6.4,10,7,13.9,1.1,58.1-2.1,58.1-2.1A37.8,37.8,0,0,0,351.6,679Z"/>
    <g class="ah">
      <path d="M293.1,480.5a45.482,45.482,0,0,1-17.7,9c0,.4.1.8.1,1.2,0,0,10.1.5,22.9-9.6a17.864,17.864,0,0,1,6.8-3.6C302.4,476.1,298.5,476.2,293.1,480.5Z"/>
      <path d="M365.4,380.5c-1.9-5.6-4.7-12.7-6.9-14.4-.1-.1-.3-.2-.4-.3,0,0-4.4.2-4.3.3,2.2,1.7,4.3,8.3,6.2,13.9a31.058,31.058,0,0,1,1.2,14.2c-1.9,11.4-6,35-10.6,55.4-6.4,28.3-13.3,21.9-16.5,28.8-2.6,5.7-1.3,13.1-.7,15.7a13.175,13.175,0,0,0,5.5,1.4s-2.7-9.6.5-16.5,10.1-.5,16.5-28.8c4.6-20.4,8.7-44,10.6-55.4A30.036,30.036,0,0,0,365.4,380.5Z"/>
    </g>
  </g>
</svg>
